<?xml version="1.0" encoding="utf-8"?>
<!DOCTYPE svg PUBLIC "-//W3C//DTD SVG 1.1//EN" "http://www.w3.org/Graphics/SVG/1.1/DTD/svg11.dtd">
<svg version="1.1" id="bubble2" xmlns="http://www.w3.org/2000/svg" xmlns:xlink="http://www.w3.org/1999/xlink" x="0px" y="0px" width="80px" height="80px" viewBox="0 0 80 80" enable-background="new 0 0 80 80" xml:space="preserve">
<g>
	<g>
		<path fill="#ececec" d="M79.981,11.647c-0.047,0.747-0.406,1.41-0.967,1.838l-0.115,0.033c-1.076,1.831-3.604,4.729-4.711,9.177
			C72.468,29.606,72,38,72,38v0.596C72,49.041,72,60,72,60c0,10.925-8.765,19.789-19.643,19.982l27.65-0.015L79.981,11.647z M20,80
			h32c0.121,0,0.236-0.016,0.357-0.018l-32.386,0.016C19.981,79.998,19.99,80,20,80z M0,60l0.013,20.009l19.959-0.011
			C8.938,79.982,0,71.036,0,60z M79.98,11.314l0.001,0.333c0.003-0.052,0.019-0.1,0.019-0.153C80,11.433,79.985,11.375,79.98,11.314
			z M-0.009-0.039L0,20C0,8.954,8.954,0,20,0h32c7.129,0,13.387,3.729,16.927,9.344l0.1,0.184c0,0,1.312,0.684,3.229,0.394
			c3.316-0.502,5.113-0.958,5.113-0.958l0.125,0.025c1.322,0,2.393,1.027,2.486,2.325L79.978,0.01L-0.009-0.039z"/>
	</g>
</g>
</svg>
