<?xml version="1.0" encoding="utf-8"?>
<!DOCTYPE svg PUBLIC "-//W3C//DTD SVG 1.1//EN" "http://www.w3.org/Graphics/SVG/1.1/DTD/svg11.dtd">
<svg version="1.1" id="bubble1" xmlns="http://www.w3.org/2000/svg" xmlns:xlink="http://www.w3.org/1999/xlink" x="0px" y="0px" width="80px" height="80px" viewBox="0 0 80 80" enable-background="new 0 0 80 80" xml:space="preserve">
<g>
	<g>
		<path fill="#ececec" d="M-0.009,79.968l27.65,0.015C16.763,79.789,7.999,70.925,7.999,60c0,0,0-10.959,0-21.404V38
			c0,0-0.468-8.394-2.189-15.305c-1.107-4.448-3.634-7.346-4.711-9.177l-0.115-0.033c-0.56-0.428-0.92-1.091-0.967-1.838
			L-0.009,79.968z M60.027,79.998l-32.386-0.016C27.762,79.984,27.878,80,27.999,80h32C60.009,80,60.018,79.998,60.027,79.998z
			 M60.027,79.998l19.96,0.011L79.999,60C79.999,71.036,71.061,79.982,60.027,79.998z M-0.001,11.494
			c0,0.053,0.015,0.101,0.018,0.153l0.001-0.333C0.013,11.375-0.001,11.433-0.001,11.494z M0.021,0.01L0.018,11.314
			c0.094-1.298,1.164-2.325,2.487-2.325L2.63,8.964c0,0,1.797,0.456,5.113,0.958c1.918,0.29,3.229-0.394,3.229-0.394l0.1-0.184
			C14.612,3.729,20.87,0,27.999,0h32c11.046,0,20,8.954,20,20l0.009-20.039L0.021,0.01z"/>
	</g>
</g>
</svg>
