<?xml version="1.0" standalone="no"?><!DOCTYPE svg PUBLIC "-//W3C//DTD SVG 1.1//EN" "http://www.w3.org/Graphics/SVG/1.1/DTD/svg11.dtd"><svg t="1504080240040" class="icon" style="" viewBox="0 0 1024 1024" version="1.1" xmlns="http://www.w3.org/2000/svg" p-id="3035" xmlns:xlink="http://www.w3.org/1999/xlink" width="32" height="32"><defs><style type="text/css"></style></defs><path d="M924.8 432c-25.6-28.8-64-28.8-76.8-28.8h-150.4c-41.6 0-60.8-3.2-70.4-6.4 51.2-80 41.6-198.4 6.4-262.4-19.2-35.2-44.8-51.2-73.6-51.2h-3.2c-12.8-3.2-41.6-3.2-60.8 16-12.8 12.8-19.2 32-16 54.4 12.8 160-153.6 246.4-182.4 262.4-6.4-6.4-9.6-6.4-19.2-6.4h-172.8c-12.8 0-25.6 12.8-25.6 25.6v483.2c0 12.8 12.8 25.6 25.6 25.6h176c6.4 0 12.8-3.2 19.2-6.4 3.2 3.2 3.2 6.4 6.4 6.4 0 0 313.6-3.2 419.2-3.2s147.2-176 179.2-316.8c6.4-32 12.8-60.8 22.4-86.4 19.2-44.8 16-80-3.2-105.6z m-665.6 460.8h-121.6v-435.2h121.6v435.2z m624-364.8c-6.4 25.6-12.8 54.4-22.4 89.6-25.6 108.8-64 278.4-128 278.4-102.4 0-396.8 3.2-419.2 3.2v-428.8c3.2 0 6.4 0 9.6-3.2 9.6-3.2 236.8-105.6 217.6-316.8 0-9.6 3.2-12.8 0-12.8 3.2-3.2 6.4-3.2 19.2-3.2h6.4c6.4 0 19.2 9.6 25.6 25.6 28.8 54.4 32 153.6-9.6 214.4-12.8 22.4-9.6 38.4-6.4 48 12.8 25.6 51.2 35.2 121.6 35.2h153.6c6.4 0 25.6 0 32 9.6 9.6 6.4 6.4 28.8 0 60.8z" p-id="3036" fill="#8a8a8a"></path></svg>