<?xml version="1.0" encoding="utf-8"?>
<!DOCTYPE svg PUBLIC "-//W3C//DTD SVG 1.1//EN" "http://www.w3.org/Graphics/SVG/1.1/DTD/svg11.dtd">
<svg version="1.1" id="jump" xmlns="http://www.w3.org/2000/svg" xmlns:xlink="http://www.w3.org/1999/xlink" x="0px" y="0px"
	 width="37px" height="31px" viewBox="0 0 37 31" enable-background="new 0 0 37 31" xml:space="preserve">
<g>
	<path fill="#ffffff" d="M34.8,15.4L34.8,15.4c-0.6,0-1,0.5-1,1.2v10.9c-0.1,0-0.1,0-0.2,0H3.5V4.4h16c0.7,0,1.2-0.5,1.2-1
		c0-0.5-0.6-1-1.2-1h-16c-1,0.2-1.7,1-1.9,1.9v22.9c0.3,1.3,1.4,2.3,2.8,2.3h29.3c0.3,0,0.5-0.1,0.7-0.2c0.1,0.1,0.3,0.2,0.5,0.2h0
		c0.6,0,1-0.5,1-1.2V16.6C35.9,16,35.4,15.4,34.8,15.4z M35.9,3.5c0-0.4-0.2-0.7-0.6-0.8c0,0-0.1,0-0.1,0c0,0-0.1-0.1-0.1-0.1
		l-5.6-2.5c-0.6-0.3-1.3,0-1.5,0.5c-0.2,0.5,0.1,1.2,0.8,1.4l3.4,1.5c-1.4,0.4-5.9,2-9.8,5.8c-4.9,4.9-8,10-8,10
		c-0.6,0.6-0.7,1.4-0.1,2c0.6,0.6,1.2,0.3,1.8-0.3c0,0,2.8-5,7.7-9.9c3.7-3.7,7.9-5.6,9.8-6.3l-1.6,5.1c-0.2,0.6,0,1.3,0.5,1.5
		c0.5,0.2,1.1-0.1,1.4-0.7l2.1-6.5c0,0,0-0.1,0-0.1c0,0,0,0,0,0c0-0.1,0-0.2,0-0.2c0,0,0-0.1,0-0.1C35.9,3.6,35.9,3.6,35.9,3.5z"/>
</g>
</svg>
