<svg enable-background="new 0 0 156 64" height="64" viewBox="0 0 156 64" width="156" xmlns="http://www.w3.org/2000/svg"><path d="m89.9 32-2.1-1.1c-2.7 4.3-5.5 7.9-8.4 10.7 0 .1.1.3.2.6.2.7.4 1.3.5 2 .5-.5 1.1-1.1 1.9-2s1.4-1.6 1.8-2l-1.8 14.5h2.4l2.2-18.1c1.3-1.6 2.3-3.1 3.3-4.6zm14.2 13.8c-.1-.7-.2-1.3-.2-1.7-1 .9-2.7 2.2-4.2 3.2l.8-6h-10.2l-.3 2.5c-.3 4-1.6 6.6-3.9 7.8.7.7 1.2 1.4 1.4 2.1 2.9-2.1 4.6-5.3 4.9-9.3l.1-.8h5.3l-.4 3.2c-.1 1.4-.6 2.4-1.4 2.9l1.6 2c .8-.7 1.3-1 1.7-1.1 1.5-1.2 3.4-2.7 5-3.8-.1-.2-.1-.5-.2-1zm-12.8-22.7-2.1-1.8c-2 3.2-5 6.7-8.1 9.6.3.7.9 1.7 1.1 2.5 3.6-3.2 6.5-6.8 9.1-10.3zm-1 15.3h12l .3-2.3h-12zm13.4-5.3 1-8.9h-2.4l-.7 6.7h-3l1.1-8.8h-2.3l-1.1 8.8h-3l .7-6.7h-2.3l-1 8.9zm8.6-11-2.4-.8c-1.9 5.3-4.4 10.6-7.1 14.8.7.5 1.2.8 1.6 1.5.6-.7 1.1-1.6 1.6-2.4-.3 4 0 6.5 1.5 10.1-1.2 2.2-3.9 4.6-7.7 7.5.7.7 1.3 1.4 1.7 2 3.3-2.9 5.6-5.2 6.8-7 1.4 2.5 3 4.9 4.9 6.9.5-.7 1.1-1.6 1.8-2.5-2.5-2.2-4.1-4.7-5-6.9 2.2-3.4 4-8.6 5.4-15.1h2l .3-2.2h-8c1.1-2 2-4 2.6-5.9zm.8 8.1c-1 4.9-2.5 9-3.8 12.3-1.2-3.2-1.6-6.6-1-11.9.1-.1.2-.2.2-.3l.2-.1zm35.9 12.6h-2.9l-.1 1.4h-18.7l-.2 2.2h18.7l-.4 3.9c0 1-.7 2-2.3 2-.6 0-4.6 0-5.1 0 .1 1 .2 1.6.3 2.3h4.9c3.1 0 4.8-1.7 5-4.2l.5-4h5.5l.2-2.2h-5.5zm2.2-17.1 1.7-1.5c-.4-.4-.9-.9-1.6-1.5-.6-.6-1.1-1-1.5-1.4l-1.9 1.4c.7.7 1.7 1.8 2.8 3h-6.2l.5-4.4h-2.6l-.5 4.4h-11.3l-.3 2.3h11.3l-.3 2.2h-9.6l-1.7 12.6h2.6l.4-1.9h7l-.3 1.9h2.6l.3-1.9h6.9l-.3 1.9h2.6l1.6-12.6h-9.4l.3-2.2h11.5l.3-2.3zm-11 12.7h-7l .4-1.5h7zm .6-4.1h-7l .4-1.6h7zm8.9 4.1h-6.8l.4-1.5h6.9zm.9-5.7-.3 1.6h-6.9l.4-1.6zm-19.7 15.9c1.8 1 3.3 2 4.6 3.1l2-1.5c-1.5-1.1-3.1-2.5-4.8-3.5zm-1.2-17.7h-3.5l1.2-9.7h-2.7l-1.2 9.7h-3.5l-.6 2.2h3.8l-2.3 21.6h2.9l2.1-21.6h3.5z" fill="#221815"/><path d="m50.9 0c-.8 0-1.7.1-2.6.2-1.5.2-2.4 1.4-2.4 3-.1 1.6 1.3 3 2.9 2.9.6-.1 1.2-.2 1.9-.2 8.4 0 16 6.8 16 15.4 0 1.4-.5 2.6-.9 4-.4 1.5.3 3.1 1.8 3.6.3.1.5.1.8.1 1.2 0 2.2-.8 2.6-2.1.5-1.9 1-3.6 1-5.6-.1-11.8-9.7-21.3-21.1-21.3zm.1 9.9c-.4 0-.9 0-1.3.1-1.4.2-2.1 1.1-2.2 2.5 0 1.5 1.4 2.2 2.8 2 .3 0 .5-.1.7-.1 3.2 0 6 2.7 6 6 0 .5-.4 1.6-.5 2.2-.4 1.4 0 2.8 1.3 3.2.2.1.8.1 1 .1 1.1 0 2.1-.7 2.4-1.9.3-1 .4-2.5.4-3.5 0-6.2-4.7-10.6-10.6-10.6z" fill="#f39800"/><path d="m53 32s-2.4-.3-.9-2.5c2.4-3.6 2.1-11.9-6.3-11.1-5.4.5-10 4.3-11.2 3.9-1.6-.4 3.7-4.8-1-9.7-10.6-11-51.1 30-24.9 46.8 14.3 9.2 41.6 4.1 50.6-10.6 4.6-7.6 2.2-15.2-6.3-16.8zm-24.1 28.1c-11.9.9-22.4-5.1-23-13.4s8.9-16 20.8-16.9 22.4 5.2 23 13.5-8.9 15.8-20.8 16.8z" fill="#df2029"/><path d="m28.9 60.1c-11.9.9-22-5.1-22.7-13.4-.6-8.3 8.6-15.8 20.5-16.7s22.1 5 22.7 13.3-8.6 15.8-20.5 16.8z" fill="#fff"/><path d="m37.6 44c-1.2-5.5-7.9-9.3-13.9-7.8-6.3 1.5-10.6 7.7-9.4 13.2s7.6 8.1 13.9 6.6c6.2-1.5 10.6-6.5 9.4-12zm-14.5 7.6c-2 .7-3.9 0-4.5-1.9s.4-3.9 2.4-4.6 4.1.3 4.7 2.2-.5 3.6-2.6 4.3zm5.5-5.2c-.8.3-1.6-.3-1.9-1-.2-.8.2-1.6 1-1.9s1.6.3 1.9 1c .3.8-.2 1.6-1 1.9z"/></svg>