<?xml version="1.0" standalone="no"?><!DOCTYPE svg PUBLIC "-//W3C//DTD SVG 1.1//EN" "http://www.w3.org/Graphics/SVG/1.1/DTD/svg11.dtd"><svg t="1504080063455" class="icon" style="" viewBox="0 0 1024 1024" version="1.1" xmlns="http://www.w3.org/2000/svg" p-id="1032" xmlns:xlink="http://www.w3.org/1999/xlink" width="32" height="32"><defs><style type="text/css"></style></defs><path d="M224 424.533333m-78.933333 0a78.933333 78.933333 0 1 0 157.866666 0 78.933333 78.933333 0 1 0-157.866666 0Z" fill="#8a8a8a" p-id="1033"></path><path d="M778.666667 424.533333m-78.933334 0a78.933333 78.933333 0 1 0 157.866667 0 78.933333 78.933333 0 1 0-157.866667 0Z" fill="#8a8a8a" p-id="1034"></path><path d="M501.333333 424.533333m-78.933333 0a78.933333 78.933333 0 1 0 157.866667 0 78.933333 78.933333 0 1 0-157.866667 0Z" fill="#8a8a8a" p-id="1035"></path><path d="M960 123.733333v631.466667H644.266667L512 900.266667l-132.266667-145.066667H64V123.733333h896m0-64H64c-36.266667 0-64 27.733333-64 64v631.466667c0 36.266667 27.733333 64 64 64h288l113.066667 123.733333c12.8 12.8 29.866667 21.333333 46.933333 21.333334s34.133333-8.533333 46.933333-21.333334l113.066667-123.733333H960c36.266667 0 64-27.733333 64-64V123.733333c0-34.133333-27.733333-64-64-64z" fill="#8a8a8a" p-id="1036"></path></svg>