<?xml version="1.0" encoding="utf-8"?>
<!DOCTYPE svg PUBLIC "-//W3C//DTD SVG 1.1//EN" "http://www.w3.org/Graphics/SVG/1.1/DTD/svg11.dtd">
<svg version="1.1" id="shang" xmlns="http://www.w3.org/2000/svg" xmlns:xlink="http://www.w3.org/1999/xlink" x="0px" y="0px"
	 width="50px" height="50px" viewBox="0 0 50 50" style="enable-background:new 0 0 50 50;" xml:space="preserve">
<g>
	<g>
		<path style="fill-rule:evenodd;clip-rule:evenodd;fill:#ff8200;" d="M41.7,23.9c1.2,0,2.1-0.9,2.1-2.1v-7.3c0-1.2-0.9-2.1-2.1-2.1
			H8.3c-1.2,0-2.1,0.9-2.1,2.1v7.3c0,1.2,0.9,2.1,2.1,2.1H41.7z M10.4,16.6h29.2v3.1H10.4V16.6z M3.1,31.2v9.4h5.2v-9.4h33.3v9.4
			h5.2v-9.4c0-2.9-2.3-5.2-5.2-5.2H8.3C5.5,26,3.1,28.4,3.1,31.2z M28.1,32.3h-5.2C19.3,46.6,0,44.8,0,44.8s0,2.1,0,4.2
			c13.7,0,22.7-3.4,26-9.4c7.1,10.5,24,9.4,24,9.4s-0.1-4.2,0-4.2C28.5,44.8,28.1,32.3,28.1,32.3z M44.8,5.2H40L41.7,1h-5.2
			l-1.7,4.2h-7.7V1h-5.2v4.2h-6.7L13.5,1H8.3L10,5.2H5.2C2.3,5.2,0,7.5,0,10.4v2.1c0,0.7,0.2,1.4,0.4,2.1h4.8v-4.2h39.6v4.2h4.8
			c0.3-0.6,0.4-1.3,0.4-2.1v-2.1C50,7.5,47.7,5.2,44.8,5.2z"/>
	</g>
</g>
</svg>
