<?xml version="1.0" standalone="no"?><!DOCTYPE svg PUBLIC "-//W3C//DTD SVG 1.1//EN" "http://www.w3.org/Graphics/SVG/1.1/DTD/svg11.dtd"><svg t="1504080203015" class="icon" style="" viewBox="0 0 1024 1024" version="1.1" xmlns="http://www.w3.org/2000/svg" p-id="2124" xmlns:xlink="http://www.w3.org/1999/xlink" width="32" height="32"><defs><style type="text/css"></style></defs><path d="M194.533822 37.12488A156.927023 156.927023 0 0 1 250.9232 341.145904l113.782126 294.589348a179.402505 179.402505 0 0 1 140.47176 12.040437L771.471408 429.442439a112.97943 112.97943 0 1 1 32.910527 41.338832L548.924006 679.88352a180.606549 180.606549 0 1 1-231.577731-20.067395L198.346627 350.978927h-3.812805a156.927023 156.927023 0 0 1 0-314.054721m0-36.924005a194.252377 194.252377 0 0 0-22.074134 387.100036l100.336972 260.876126a217.129206 217.129206 0 1 0 328.302571 37.927375l206.092139-168.766786a148.298044 148.298044 0 0 0 66.423075 15.451894A150.104109 150.104109 0 1 0 722.70764 381.280692a148.09737 148.09737 0 0 0 4.214153 35.318614l-227.162904 187.228789a217.931902 217.931902 0 0 0-78.062163-14.849871 214.921793 214.921793 0 0 0-33.111201 2.608761l-90.905296-232.982448A194.051703 194.051703 0 0 0 194.533822 0.000201z" p-id="2125" fill="#8a8a8a"></path></svg>