<svg height="202" preserveAspectRatio="xMidYMid" viewBox="0 0 636 202" width="636" xmlns="http://www.w3.org/2000/svg"><g fill="#c6c6c6" fill-rule="evenodd"><path d="m620 153-8-1 12-52 10 5zm-1 16-5.387 7.1-6.613-7.1 5-6z"/><path d="m575 135 .521 14.466 9.479-.466 1 7-10.224.52.46 12.78-19.722.794.486 14.906-17 3 2-8 8.742-1.589-.453-8.067-16.289.656 2-7 13.911-.376-.324-5.773-22.587 1.149-3-7 25.189-1.239-.398-7.087-16.791 1.326-2-6 18.436-1.639-.332-5.908-19.104 2.547v-19l7-4-.228 3.655 11.311-1.377-.352-6.263-24.731 2.985-2-7 26.302-3.628-.302-5.372 8-1 .172 5.287 23.828-3.287 2 8-25.573 3.086.204 6.273 19.369-2.359v18l-18.777 2.504.203 6.236zm-27.606-16.194-11.947 1.046-.438 7.01 12.74-1.738zm18.798 23.495-10.557.833.238 7.298 10.951-.538zm1.736 20.836-.516-6.192-11.308.575.193 5.931zm.072-40.777v-5.36l-13.18 1.155.195 5.977z"/><path d="m493.533 146.402 14.467-.402v6l-14.228.837.413 11.163h18.815l-3 9-15.51-.757.51 13.757-9 2v-16.171l-17-.829 2-7h15v-10.706l-12 .706-2-7 14-.389v-12.94l-18 1.329-2-7 43.978-2.9v6.8l-16.935 1.251zm-2.533-28.402 7-10 8 4-10 13zm-20-7 7-3 6 10-8 5zm-9 53h-33l1-27h6.925l-.237 3.314 11.191-.659-3.879-4.655 7.011-7.012-12.91-1.089-3.101 3.101-5-3 10-14 8 4-5 5h18l2 7-12.233 10.485 13.34-.785zm-18-10h-4l-2-5 6-.034v-3.434l-7.682-.028-.962 13.474 8.644-.538zm13.084-8.419-7.084-.026v3.377l5.613-.032-1.699 5.1h-3.914v4.066l7.084-.44zm3.916 34.419-27 3-2-9 28-1z"/><path d="m418 139-7.924.72.924 33.28-9 2-.957-34.458-14.465 1.314-2.578 21.144-10-2c3.637-9.434 6.998-35.515 6.999-40.896l-.139-.104 19.14-15 6 8-17.294 11.407-1.135 9.307 27.429-1.714zm-96-2 31.333-4.476-6.333-4.524 5-13 9 1-6.75 16.393 16.75-2.393 1 7-49 9zm11-5-7-7 5-5 9 7zm-11-26 37-3 2 8-38 2zm12-15 8-3 3 10-8 3zm6 80-7 13-7-4 7-10zm6.617-10.202-17.617 2.202-2-7 18.305-3.125-1.305-7.875h9l .915 6.405 14.085-2.405 1 9-13.895 1.737 3.895 27.263-15-1-2-6 7.701-.592zm32.383 8.202-2 10-13-6 3-7z"/><path d="m289 185v-21l7-1c .568 3.852 1.086 9.011 1.485 12.736l10.051-.591-1.536-6.145h7l2 12zm2.411-61.655-23.031 3.071 3.62 32.584-8 2-5-41 40-7 4 41-9 3zm-66.411 47.655 10.594-1.059-1.152-11.519-11.442 1.578-1-8 11.675-1.251-.675-6.749 10-2v7.75l7-.75 2 7-9 1.241v11.959l12-1.2v7l-30 4zm-6-39 29-7 2 9-29 6zm67 10c .299 25.249-9.471 39.514-12 42l-9-4c12.383-12.714 13.796-36.592 14-41z"/><path d="m172.602 160h28.398v7c-.962 3.098-4.84 11.203-10.761 18.77 5.04 2.789 11.337 5.305 18.761 6.23l-3 9c-3.196-.552-11.111-1.616-21.483-8.849-2.89 2.771-6.076 5.188-9.517 6.849l-6-7c1.55-.793 4.734-2.76 8.266-5.649-2.346-2.12-4.773-4.546-7.266-7.351l7-3c .939.827 2.973 2.769 5.957 5.029 3.507-3.771 6.708-8.331 8.365-13.491l-24.143 1.341c-3.722 5.254-8.363 10.403-14.179 15.121l-5-5c3.161-3.055 15.116-12.893 21.668-31.372l-22.668.372 1-20 8 2-.763 9.916 16.839-.636c1.361-6.015 2.121-12.751 1.924-20.28l8.086 2.1c0 1.596.074 8.564-1.937 17.875l25.851-.975 2 9-30.145.494c-1.304 4.006-3.023 8.232-5.253 12.506zm18.398-35 3-7 11.871 4.8-3.871 7.2z"/><path d="m389 56 1.966 12.781.088.219-41.054 2-4.599-32.191-8.401 1.191v-8l7.288-.981-2.288-16.019 9-2 1.874 16.863 10.112-1.361-.986-20.502 9 2-.165 17.445 18.165-2.445v27l-13 2v-6l6.634-1.659-1.263-12.632-10.61 1.504-.094 9.987-6.796 1.7-.512-10.637-9.623 1.364 2.707 24.36 24.937-1.188-.38-3.799zm-79 1 9.35-2.033-1.801-11.161-9.549 1.194v-5l8.645-1.801-1.645-10.199 7-2 1.628 10.744 8.372-1.744v7l-7.435.929 1.6 10.557 6.835-1.486 2 6-24 4z"/><path d="m194.999 37.196 6.001 43.804h-26l-1-7 17.306-.721-5.283-35.922-36.023.643 2-8 32.756-1.26-2.756-18.74 9-2 2.793 20.393 10.207-.393 2 9zm-81.999-2.196 6-2 .153 3.289 23.847-3.289 5 48-33.871-.1zm6.977 19h11.023l2 8h-12.651l.563 12.112.013-.012 16.971-.077-1.755-33.352-16.65 2.896zm55.023 1-1 9-16-5 2-7z"/><path d="m81 81 7.313-1.192-2.715-22.788-15.459.071.34 5.098 9.521-.189 2 5-11.184.244.317 4.756h10.867l1 5-11.482.765.482 7.235h-7v-35l27-1 3 35s-12.423 1.973-12 2zm-25-24-3-8c3.952-3.521 6.81-7.237 8.906-10.813l-6.906-.187-2-7 12.402-.335c1.727-4.844 2.233-8.802 2.598-10.665l7 2c0 2.756-.535 5.609-1.421 8.444l16.421-.444 2 9-21.778-.589c-4.977 9.545-12.312 17.467-14.222 18.589zm-5 26-1.757 9.318c2.747.631 8.858 1.682 16.757 1.682 8.627 0 13.48-.107 24-3l5 5c-3.15 1.37-14.621 5-32 5-7.046 0-16.742.208-23.624-1.4l3.445-15.779-4.821-4.821 5.121-11.95c-.42-.059-1.631-.05-3.121-.05-2.643 0-4.361-.038-7 0l2-5c .811-.022 14.292-1.739 17-2-.802 3.069-3.9 11.715-6 16zm-17-34 1.978-8.9 12.022 4.9-2 9zm-4.817 25.1c-1.535 3.355-5.136 4.9-7.183 4.9-.891 0-2.63.042-4.159.06l1.148 13.74-7.989 1.2v-23l6-2 .254 3.036c2.096.002 3.932-.141 4.746-1.036 1.023-1.125 2.01-3.244 2-5-.03-5.432-5.372-9.442-7-11 .733-2.488 2.545-7.961 3.8-12.282l-18.8 1.282 2-7c10.02 0 25 1 25 1-.809 2.728-1.801 11.473-5 17 2.803 2.551 10.321 7.868 5.183 19.1z"/><path d="m288 62 7.313-1.192-2.715-22.788-15.459.071.34 5.098 9.521-.189 2 5-11.184.244.317 4.756h10.867l1 5-11.482.765.482 7.235h-7v-35l27-1 3 35s-12.423 1.973-12 2zm-25-24-3-8c3.952-3.521 6.81-7.237 8.906-10.813l-6.906-.187-2-7 12.402-.335c1.727-4.844 2.233-8.802 2.598-10.665l7 2c0 2.756-.535 5.609-1.421 8.444l16.421-.444 2 9-21.778-.589c-4.977 9.545-12.312 17.467-14.222 18.589zm-5 26-1.757 9.318c2.747.631 8.858 1.682 16.757 1.682 8.627 0 13.48-.107 24-3l5 5c-3.15 1.37-14.621 5-32 5-7.046 0-16.742.208-23.624-1.4l3.445-15.779-4.821-4.821 5.121-11.95c-.42-.059-1.631-.05-3.121-.05-2.643 0-4.361-.038-7 0l2-5c .811-.022 14.292-1.739 17-2-.802 3.069-3.9 11.715-6 16zm-17-34 1.978-8.9 12.022 4.9-2 9zm-4.817 25.1c-1.535 3.355-5.136 4.9-7.183 4.9-.891 0-2.63.042-4.159.06l1.148 13.74-7.989 1.2v-23l6-2 .254 3.036c2.096.002 3.932-.141 4.746-1.036 1.023-1.125 2.01-3.244 2-5-.03-5.432-5.372-9.442-7-11 .733-2.488 2.545-7.961 3.8-12.282l-18.8 1.282 2-7c10.02 0 25 1 25 1-.809 2.728-1.801 11.473-5 17 2.803 2.551 10.321 7.868 5.183 19.1z"/></g></svg>