<svg xmlns="http://www.w3.org/2000/svg" viewBox="0 0 90 90"><g fill="#FE4C58"><path d="M16.4 63H9l7.6-36h14.7c2.6 0 4.7.3 6.2.9 1.5.6 2.7 1.6 3.6 3 .9 1.4 1.3 3.1 1.3 5.1 0 1.8-.4 3.6-1.1 5.3-.7 1.7-1.6 3.1-2.6 4.1s-2.1 1.8-3.3 2.3c-1.2.5-2.8.9-4.8 1.2-1.2.2-3.3.2-6.5.2h-4.8L16.4 63zm4.1-19.7h2.3c3.9 0 6.5-.2 7.9-.7 1.3-.5 2.3-1.3 3.1-2.4s1.1-2.3 1.1-3.6c0-.9-.2-1.6-.6-2.1s-.9-1-1.6-1.2c-.7-.3-2.3-.4-4.7-.4h-5.3l-2.2 10.4zM42.6 63l7.5-36h7.4l-3.2 15.3L71.1 27H81L64.8 41.1 76.7 63h-8.4l-8.9-17.1-7 6.1L50 63h-7.4z"/></g><g fill="#2EABFA"><path d="M73.5 33.6L81 27h-9.9L60.2 37zM55.2 38.2L57.6 27h-7.5l-2.8 13.3z"/></g><path fill="#2EABFA" d="M41.1 41.9c.1-.2.2-.3.2-.5.7-1.7 1.1-3.5 1.1-5.3 0-2-.4-3.7-1.3-5.1-.9-1.4-2.1-2.4-3.6-3-1.5-.6-3.6-.9-6.2-.9H16.6l-4.7 22.3 29.2-7.5zm-18.4-9H28c2.4 0 4 .1 4.7.4.7.3 1.2.7 1.6 1.2s.6 1.3.6 2.1c0 1.3-.4 2.5-1.1 3.6s-1.8 1.9-3.1 2.4-3.9.7-7.9.7h-2.3l2.2-10.4z"/></svg>